
<svg width="17px" height="17px" viewBox="0 0 17 17" version="1.1" xmlns="http://www.w3.org/2000/svg" xmlns:xlink="http://www.w3.org/1999/xlink">
    <!-- Generator: Sketch 51.2 (57519) - http://www.bohemiancoding.com/sketch -->
    <desc>Created with Sketch.</desc>
    <defs></defs>
    <g id="Page-1" stroke="none" stroke-width="1" fill="none" fill-rule="evenodd">
        <g id="IOT-Devices" transform="translate(-28.000000, -168.000000)" fill="#FFFFFF" fill-rule="nonzero">
            <g id="main-nav" transform="translate(19.000000, 0.000000)">
                <g id="devices" transform="translate(0.000000, 159.000000)">
                    <path d="M24.8333981,26 L20.1666019,26 C19.5226376,26 19,25.4773914 19,24.8326853 L19,20.1669259 C19,19.5233863 19.5226376,19 20.1666019,19 L24.8333981,19 C25.4773624,19 26,19.5233863 26,20.1669259 L26,24.8326853 C26,25.4773914 25.4773624,26 24.8333981,26 Z M25,20.6250521 C25,20.2800233 24.7200233,20 24.3750521,20 L20.6253646,20 C20.2799767,20 20,20.2800233 20,20.6250521 L20,24.3757813 C20,24.7208101 20.2799767,25 20.6253646,25 L24.3750521,25 C24.7200233,25 25,24.7208101 25,24.3757813 L25,20.6250521 Z M24.8333981,16 L20.1666019,16 C19.5226376,16 19,15.4773914 19,14.8338518 L19,10.1677036 C19,9.5226086 19.5226376,9 20.1666019,9 L24.8333981,9 C25.4773624,9 26,9.5226086 26,10.1677036 L26,14.8338518 C26,15.4773914 25.4773624,16 24.8333981,16 Z M25,10.62375 C25,10.27875 24.7200233,10 24.3750521,10 L20.6253646,10 C20.2799767,10 20,10.27875 20,10.62375 L20,14.3745833 C20,14.7195833 20.2799767,15 20.6253646,15 L24.3750521,15 C24.7200233,15 25,14.7195833 25,14.3745833 L25,10.62375 Z M14.8336574,26 L10.1667315,26 C9.52230679,26 9,25.4773914 9,24.8326853 L9,20.1669259 C9,19.5233863 9.52230679,19 10.1667315,19 L14.8336574,19 C15.4776932,19 16,19.5233863 16,20.1669259 L16,24.8326853 C16,25.4773914 15.4776932,26 14.8336574,26 Z M15,20.6250521 C15,20.2800233 14.72,20 14.375,20 L10.625,20 C10.2795833,20 10,20.2800233 10,20.6250521 L10,24.3757813 C10,24.7208101 10.2795833,25 10.625,25 L14.375,25 C14.72,25 15,24.7208101 15,24.3757813 L15,20.6250521 Z M14.8336574,16 L10.1667315,16 C9.52230679,16 9,15.4773914 9,14.8338518 L9,10.1677036 C9,9.5226086 9.52230679,9 10.1667315,9 L14.8336574,9 C15.4776932,9 16,9.5226086 16,10.1677036 L16,14.8338518 C16,15.4773914 15.4776932,16 14.8336574,16 Z M15,10.62375 C15,10.27875 14.72,10 14.375,10 L10.625,10 C10.2795833,10 10,10.27875 10,10.62375 L10,14.3745833 C10,14.7195833 10.2795833,15 10.625,15 L14.375,15 C14.72,15 15,14.7195833 15,14.3745833 L15,10.62375 Z" id="Shape"></path>
                </g>
            </g>
        </g>
    </g>
</svg>